<svg width="96" height="23" viewBox="0 0 96 23" fill="none" xmlns="http://www.w3.org/2000/svg">
<path d="M0.756747 3.98508V0.181818H18.6758V3.98508H11.9961V22H7.43643V3.98508H0.756747ZM26.2397 0.181818V22H21.6268V0.181818H26.2397ZM30.035 0.181818H35.7239L41.7324 14.8409H41.9881L47.9966 0.181818H53.6855V22H49.2111V7.79901H49.03L43.3837 21.8935H40.3368L34.6905 7.74574H34.5094V22H30.035V0.181818ZM57.4862 22V0.181818H66.2219C67.8271 0.181818 69.1658 0.419744 70.2383 0.895596C71.3107 1.37145 72.1168 2.03196 72.6566 2.87713C73.1964 3.7152 73.4663 4.68111 73.4663 5.77486C73.4663 6.62713 73.2958 7.37642 72.9549 8.02273C72.614 8.66193 72.1452 9.1875 71.5487 9.59943C70.9592 10.0043 70.2844 10.2919 69.5245 10.4624V10.6754C70.3555 10.7109 71.1332 10.9453 71.8576 11.3786C72.5891 11.8118 73.1822 12.419 73.6367 13.2003C74.0913 13.9744 74.3185 14.8977 74.3185 15.9702C74.3185 17.1278 74.0309 18.1612 73.4556 19.0703C72.8874 19.9723 72.0458 20.6861 70.9308 21.2116C69.8157 21.7372 68.4414 22 66.8079 22H57.4862ZM62.0991 18.2287H65.8597C67.1452 18.2287 68.0827 17.9837 68.6722 17.4936C69.2617 16.9964 69.5565 16.3359 69.5565 15.5121C69.5565 14.9084 69.4109 14.3757 69.1197 13.9141C68.8285 13.4524 68.413 13.0902 67.8732 12.8274C67.3406 12.5646 66.7049 12.4332 65.9663 12.4332H62.0991V18.2287ZM62.0991 9.31179H65.5188C66.1509 9.31179 66.712 9.2017 67.2021 8.98153C67.6992 8.75426 68.0898 8.43466 68.3739 8.02273C68.6651 7.6108 68.8107 7.11719 68.8107 6.5419C68.8107 5.75355 68.5302 5.1179 67.9691 4.63494C67.4151 4.15199 66.6268 3.91051 65.604 3.91051H62.0991V9.31179ZM90.7967 0.181818H95.4096V14.3509C95.4096 15.9418 95.0297 17.3338 94.2697 18.527C93.5169 19.7202 92.4622 20.6506 91.1056 21.3182C89.7491 21.9787 88.1689 22.3089 86.3649 22.3089C84.5538 22.3089 82.97 21.9787 81.6135 21.3182C80.2569 20.6506 79.2022 19.7202 78.4494 18.527C77.6966 17.3338 77.3201 15.9418 77.3201 14.3509V0.181818H81.9331V13.9567C81.9331 14.7876 82.1142 15.5263 82.4764 16.1726C82.8457 16.8189 83.3642 17.3267 84.0318 17.696C84.6994 18.0653 85.4771 18.25 86.3649 18.25C87.2598 18.25 88.0375 18.0653 88.698 17.696C89.3656 17.3267 89.8805 16.8189 90.2427 16.1726C90.612 15.5263 90.7967 14.7876 90.7967 13.9567V0.181818Z" fill="#344054"/>
</svg>
